/* XPM */
static char *_127a3976131473e83104339cf785947HYuvDAsuh1vgxsee[] = {
/* columns rows colors chars-per-pixel */
"40 40 182 2 ",
"   c #1F1E1F",
".  c #1E221E",
"X  c #1B351C",
"o  c #20281F",
"O  c #332819",
"+  c #3B2E19",
"@  c #251D25",
"#  c #1F2424",
"$  c #1D3A23",
"%  c #1E3729",
"&  c #1D3E2B",
"*  c #242326",
"=  c #282427",
"-  c #252A27",
";  c #2B2827",
":  c #262628",
">  c #292528",
",  c #252C28",
"<  c #2A2B29",
"1  c #312C27",
"2  c #29573a",
"3  c #07170d",
"4  c #013314",
"5  c #2B322B",
"6  c #253B2B",
"7  c #2A3D2C",
"8  c #3E3626",
"9  c #34352A",
"0  c #3B352A",
"q  c #303B2C",
"w  c #3D3A2B",
"e  c #353425",
"r  c #43372C",
"t  c #453B2C",
"y  c #4A3D2C",
"u  c #503F2D",
"i  c #433C30",
"p  c #174427",
"a  c #125220",
"s  c #264627",
"d  c #274827",
"f  c #24452C",
"g  c #29442C",
"h  c #254B2E",
"j  c #294C2D",
"k  c #30452F",
"l  c #26532E",
"z  c #28562F",
"x  c #275A2F",
"c  c #28592F",
"v  c #254630",
"b  c #204F33",
"n  c #2F4C30",
"m  c #3F4631",
"M  c #3D4D32",
"N  c #265631",
"B  c #295631",
"V  c #265B32",
"C  c #285A32",
"Z  c #245A38",
"A  c #355235",
"S  c #345C34",
"D  c #385D37",
"F  c #37593B",
"G  c #3A5839",
"H  c #34553A",
"J  c #1A6326",
"K  c #266136",
"L  c #286136",
"P  c #27633C",
"I  c #28643C",
"U  c #2A693D",
"Y  c #326831",
"T  c #3A6238",
"R  c #3B6B3B",
"E  c #35653B",
"W  c #2D743C",
"Q  c #367337",
"!  c #34733F",
"~  c #3B723B",
"^  c #3C7E3C",
"/  c #41402D",
"(  c #4C422D",
")  c #5C4821",
"_  c #51452E",
"`  c #55492E",
"'  c #594A2F",
"]  c #444C31",
"[  c #534631",
"{  c #554932",
"}  c #5B4C31",
"|  c #455B3B",
" . c #535136",
".. c #5A593C",
"X. c #5D553A",
"o. c #665025",
"O. c #614E30",
"+. c #635333",
"@. c #6B5634",
"#. c #6C5935",
"$. c #625F3A",
"%. c #6C5C3A",
"&. c #735E36",
"*. c #715E3A",
"=. c #735434",
"-. c #406437",
";. c #766136",
":. c #7A6333",
">. c #766239",
",. c #7B653B",
"<. c #7F693B",
"1. c #286740",
"2. c #286941",
"3. c #336F40",
"4. c #114f2f",
"5. c #367940",
"6. c #387F42",
"7. c #3D7242",
"8. c #4A7C4A",
"9. c #437243",
"0. c #57754E",
"q. c #5D764E",
"w. c #506750",
"e. c #556F54",
"r. c #4B7A51",
"t. c #5C7E5D",
"y. c #616048",
"u. c #766841",
"i. c #7C6943",
"p. c #647457",
"a. c #657852",
"s. c #697659",
"d. c #6D7858",
"f. c #846C3D",
"g. c #886F3F",
"h. c #85633B",
"j. c #8C7341",
"k. c #937A49",
"l. c #927A45",
"z. c #379037",
"x. c #3E943E",
"c. c #3D8B44",
"v. c #358144",
"b. c #448C43",
"n. c #428D44",
"m. c #498449",
"M. c #448E49",
"N. c #428442",
"B. c #419541",
"V. c #469346",
"C. c #449545",
"Z. c #439943",
"A. c #469946",
"S. c #469D46",
"D. c #459946",
"F. c #499B47",
"G. c #4A964A",
"H. c #469849",
"J. c #489848",
"K. c #499949",
"L. c #4A994A",
"P. c #4B9A4B",
"I. c #4A9D4A",
"U. c #4F9D4F",
"Y. c #499849",
"T. c #568650",
"R. c #5B885D",
"E. c #529655",
"W. c #509E50",
"Q. c #47A24B",
"!. c #FFFFFF",
"~. c #52A352",
"^. c #5EA45E",
"/. c #5AA35A",
"(. c #5FA95F",
"). c #62A762",
"_. c #62A862",
"`. c #9C824D",
"'. c #978053",
"]. c #A48A55",
"[. c #AF945C",
"{. c #B3965E",
/* pixels */
"J.J.J.J.J.J.J.J.J.J.J.J.J.J.J.J.4.4.2.2.2.2.2.2.4.4.J.J.J.J.J.J.J.J.J.J.J.J.J.J.",
"J.J.J.J.J.J.J.J.J.J.J.J.J.J.J.4.2.2.2.2.2.2.2.2.2.4.J.J.J.J.J.J.J.J.J.J.J.J.J.J.",
"J.J.J.J.J.J.J.J.J.J.J.J.J.J.4.c c c c c c c c c c c c.4.J.J.J.J.J.J.J.J.J.J.J.J.",
"J.J.J.J.J.J.J.J.J.J.J.J.4.2.2.2.2.2.2.2.2.2.2.2.2.2.2.4.J.J.J.J.J.J.J.J.J.J.J.J.",
"J.J.J.J.J.J.J.J.J.J.J.J.4.c c c c c c c c c c c c c c c 4.J.J.J.J.J.J.J.J.J.J.J.",
"J.J.J.J.J.J.J.J.J.J.4.2.2.2.2.2.2.2.2.2.2.2.2.2.2.2.2.2.2.2.4.J.J.J.J.J.J.J.J.J.",
"J.J.J.J.J.J.J.J.J.4.c.c c c c c c c c c c c c c c c c c c c.4.J.J.J.J.J.J.J.J.J.",
"J.J.J.J.J.J.J.J.4.4.2.2.2.2.2.2.2.2.2.2.2.2.2.2.2.2.2.2.2.2.2.4.J.J.J.J.J.J.J.J.",
"J.J.J.J.J.J.J.4.4.c c c c c c c c c c c c c c c c c c c c c c c c 4.J.J.J.J.J.J.",
"J.J.J.J.J.J.4.2.2.2.2.2.2.2.2.2.2.2.2.2.2.2.2.2.2.2.2.2.2.2.2.2.2.4.J.J.J.J.J.J.",
"J.J.J.J.J.4.4.c c c c c c c c c c c c c c c c c c c c c c c c c c c 4.J.J.J.J.J.",
"J.J.J.J.4.4.2.2.2.2.2.2.2.2.2.2.2.2.2.2.2.2.2.2.2.2.2.2.4.2.2.2.2.2.2.4.J.J.J.J.",
"J.J.J.4.c c c c c c c c c c c c c c c c c c c c c c c c c c c c c c c c 4.J.J.J.",
"J.J.J.4.2.2.2.2.2.2.2.2.2.2.2.2.2.2.2.2.2.2.2.2.2.2.2.2.2.2.2.2.2.2.2.2.2.2.4.J.",
"J.J.4.c c c c c c c c c c c c c c c c c c c c c c c c c c c c c c c c c c c 4.J.",
"J.4.2.2.2.2.2.2.2.2.2.2.2.2.2.2.2.2.2.2.2.2.2.2.2.2.2.2.2.2.2.2.2.2.2.2.2.2.4.J.",
"J.J.4.2.2.2.2.2.2.2.2.2.2.2.2.2.2.2.2.2.2.2.2.2.2.2.2.2.2.2.2.2.2.2.2.2.2.2.4.J.",
"J.J.J.4.2 2 2 2 2 2 2 2 2 2 2 2 2 2 2 2 2 2 2 2 2 2 2 2 2 2 2 2 2 2 4.J.J.J.J.J.",
"J.J.J.J.J.4.c c c c c c c c c c c c c c c c c c c c c c c c c c c 4.J.J.J.J.J.J.",
"J.J.J.J.J.4.4.4.4.4.4.4.#.#.#.#.#.#.#.#.#.#.#.#.#.#.#.4.4.4.4.4.4.J.J.J.J.J.J.J.",
"J.J.J.J.J.J.J.J.J.J.J.J.J.#.+.+.+.+.+.+.+.+.+.+.+.+.#.J.J.J.J.J.J.J.J.J.J.J.J.J.",
"J.J.J.J.J.J.J.J.J.J.J.J.#.#.%.%.%.%.%.%.%.%.%.%.%.%.#.J.J.J.J.J.J.J.J.J.J.J.J.J.",
"J.J.J.J.J.J.J.J.J.J.J.J.#.#.#.#.#.#.#.#.#.#.#.#.#.#.#.J.J.J.J.J.J.J.J.J.J.J.J.J.",
"J.J.J.J.J.J.J.J.J.J.J.J.#.#.+.+.+.+.+.+.+.+.+.+.+.+.#.#.J.J.J.J.J.J.J.J.J.J.J.J.",
"J.J.J.J.J.J.J.J.J.J.J.J.J.#.%.%.%.%.%.%.%.%.%.%.%.%.#.J.J.J.J.J.J.J.J.J.J.J.J.J.",
"J.J.J.J.J.J.J.J.J.J.J.J.#.#.#.#.#.#.#.#.#.#.#.#.#.#.#.J.J.J.J.J.J.J.J.J.J.J.J.J.",
"J.J.J.J.J.J.J.J.J.J.J.J.J.#.+.+.+.+.+.+.+.+.+.+.+.+.#.J.J.J.J.J.J.J.J.J.J.J.J.J.",
"J.J.J.J.J.J.J.J.J.J.J.J.#.#.%.%.%.%.%.%.%.%.%.%.%.#.#.J.J.J.J.J.J.J.J.J.J.J.J.J.",
"J.J.J.J.J.J.J.J.J.J.J.J.#.#.#.#.#.#.#.#.#.#.#.#.#.#.#.J.J.J.J.J.J.J.J.J.J.J.J.J.",
"J.J.J.J.J.J.J.J.J.J.J.J.#.#.%.%.%.%.%.%.%.%.%.%.%.%.%.J.J.J.J.J.J.J.J.J.J.J.J.J.",
"J.J.J.J.J.J.J.J.J.J.J.J.J.#.#.#.#.#.#.#.#.#.#.#.#.#.#.#.J.J.J.J.J.J.J.J.J.J.J.J.",
"J.J.J.J.J.J.J.J.J.J.J.J.#.#.+.+.+.+.+.+.+.+.+.+.+.+.+.J.J.J.J.J.J.J.J.J.J.J.J.J.",
"J.J.J.J.J.J.J.J.J.J.J.J.J.#.%.%.%.%.%.%.%.%.%.%.%.%.%.J.J.J.J.J.J.J.J.J.J.J.J.J.",
"J.J.J.J.J.J.J.J.J.J.J.J.#.#.#.#.#.#.#.#.#.#.#.#.#.#.#.J.J.J.J.J.J.J.J.J.J.J.J.J.",
"J.J.J.J.J.J.J.J.J.J.J.J.#.#.+.+.+.+.+.+.+.+.+.+.+.+.+.J.J.J.J.J.J.J.J.J.J.J.J.J.",
"J.J.J.J.J.J.J.J.J.J.J.J.J.#.%.%.%.%.%.%.%.%.%.%.%.%.%.J.J.J.J.J.J.J.J.J.J.J.J.J.",
"J.J.J.J.J.J.J.J.J.J.J.J.#.#.#.#.#.#.#.#.#.#.#.#.#.#.#.J.J.J.J.J.J.J.J.J.J.J.J.J.",
"J.J.J.J.J.J.J.J.J.J.J.J.J.#.+.+.+.+.+.+.+.+.+.+.+.+.+.#.J.J.J.J.J.J.J.J.J.J.J.J.",
"J.J.J.J.J.J.J.J.J.J.J.J.J.#.%.%.%.%.%.%.%.%.%.%.%.%.%.#.J.J.J.J.J.J.J.J.J.J.J.J.",
"J.J.J.J.J.J.J.J.J.J.J.J.#.#.#.#.#.#.#.#.#.#.#.#.#.#.#.#.J.J.J.J.J.J.J.J.J.J.J.J.",
};
